# Blender 3.4.1
# www.blender.org
mtllib wooden_table.mtl
o wooden_table_02
v 0.567208 0.736872 0.347106
v 0.561302 0.736872 0.353012
v 0.567208 0.793511 0.347106
v 0.529725 0.799418 0.315529
v 0.561302 0.793511 0.353012
v -0.561302 0.736872 0.353012
v -0.567208 0.736872 0.347106
v -0.529725 0.799418 0.315529
v -0.567208 0.793511 0.347106
v -0.561302 0.793511 0.353012
v 0.561302 0.736872 -0.353012
v 0.567208 0.736872 -0.347106
v 0.529725 0.799418 -0.315529
v 0.567208 0.793511 -0.347106
v 0.561302 0.793511 -0.353012
v -0.567208 0.736872 -0.347106
v -0.561302 0.736872 -0.353012
v -0.529725 0.799418 -0.315529
v -0.561302 0.793511 -0.353012
v -0.567208 0.793511 -0.347106
v -0.561302 0.731601 0.347106
v 0.561302 0.731601 0.347106
v -0.561302 0.731601 -0.347106
v 0.561302 0.731601 -0.347106
v -0.529110 0.773347 0.314780
v 0.529110 0.773347 0.314780
v -0.529110 0.773347 -0.314780
v 0.529110 0.773347 -0.314780
v 0.529110 0.733739 0.314780
v 0.531243 0.731601 0.316922
v -0.531243 0.731601 0.316922
v -0.529110 0.733739 0.314780
v 0.531243 0.731601 -0.316922
v 0.529110 0.733739 -0.314780
v -0.531243 0.731601 -0.316922
v -0.529110 0.733739 -0.314780
v 0.561302 0.799418 0.347106
v -0.561302 0.799418 0.347106
v -0.561302 0.799418 -0.347106
v 0.561302 0.799418 -0.347106
v -0.463096 -0.000125 -0.248199
v -0.458671 0.004075 -0.247986
v -0.462882 0.004075 -0.243775
v -0.421284 0.773744 -0.202356
v -0.417073 0.773744 -0.206568
v -0.508809 0.000125 -0.248191
v -0.508670 0.004075 -0.243775
v -0.512877 0.004323 -0.247973
v -0.486929 0.773744 -0.206568
v -0.482722 0.773744 -0.202356
v -0.463089 0.000125 -0.293912
v -0.462869 0.004323 -0.297981
v -0.458671 0.004075 -0.293774
v -0.417073 0.773744 -0.268005
v -0.421284 0.773744 -0.272213
v -0.508816 0.002601 -0.293919
v -0.512877 0.007054 -0.293781
v -0.508677 0.007054 -0.297980
v -0.482722 0.773744 -0.272213
v -0.486929 0.773744 -0.268005
v -0.463096 -0.000125 0.248199
v -0.458671 0.004075 0.247986
v -0.462882 0.004075 0.243775
v -0.421284 0.773744 0.202357
v -0.417073 0.773744 0.206568
v -0.508809 0.000125 0.248191
v -0.508670 0.004075 0.243775
v -0.512877 0.004323 0.247973
v -0.486929 0.773744 0.206568
v -0.482722 0.773744 0.202357
v -0.463089 0.000125 0.293912
v -0.462869 0.004323 0.297981
v -0.458671 0.004075 0.293774
v -0.417073 0.773744 0.268005
v -0.421284 0.773744 0.272213
v -0.508816 0.002601 0.293919
v -0.512877 0.007054 0.293781
v -0.508677 0.007054 0.297981
v -0.482722 0.773744 0.272213
v -0.486929 0.773744 0.268005
v 0.463096 -0.000125 -0.248199
v 0.458671 0.004074 -0.247986
v 0.462882 0.004075 -0.243775
v 0.421284 0.773744 -0.202357
v 0.417073 0.773744 -0.206568
v 0.508809 0.000125 -0.248191
v 0.508670 0.004075 -0.243775
v 0.512877 0.004323 -0.247973
v 0.486929 0.773744 -0.206568
v 0.482722 0.773744 -0.202357
v 0.463089 0.000125 -0.293912
v 0.462869 0.004323 -0.297981
v 0.458671 0.004074 -0.293774
v 0.417073 0.773744 -0.268005
v 0.421284 0.773744 -0.272213
v 0.508816 0.002601 -0.293919
v 0.512877 0.007054 -0.293781
v 0.508677 0.007054 -0.297981
v 0.482722 0.773744 -0.272213
v 0.486929 0.773744 -0.268005
v 0.463096 -0.000125 0.248199
v 0.458671 0.004074 0.247986
v 0.462882 0.004075 0.243775
v 0.421284 0.773744 0.202356
v 0.417073 0.773744 0.206568
v 0.508809 0.000125 0.248191
v 0.508670 0.004075 0.243775
v 0.512877 0.004323 0.247973
v 0.486929 0.773744 0.206568
v 0.482722 0.773744 0.202356
v 0.463089 0.000125 0.293912
v 0.462869 0.004323 0.297981
v 0.458671 0.004074 0.293774
v 0.417073 0.773744 0.268005
v 0.421284 0.773744 0.272213
v 0.508816 0.002601 0.293919
v 0.512877 0.007054 0.293781
v 0.508677 0.007054 0.297980
v 0.482722 0.773744 0.272213
v 0.486929 0.773744 0.268005
vn 1.0000 -0.0000 -0.0000
vn -0.0000 -0.0000 -1.0000
vn -0.0000 1.0000 -0.0000
vn -0.0000 -0.0000 1.0000
vn -1.0000 -0.0000 -0.0000
vn -0.0000 -1.0000 -0.0000
vn 0.9985 -0.0540 -0.0000
vn 0.9985 -0.0541 -0.0000
vn 0.0009 0.0335 -0.9994
vn 0.0008 0.0335 -0.9994
vn -0.9994 0.0337 0.0009
vn -0.9994 0.0337 0.0008
vn -0.9994 0.0339 0.0009
vn -0.0000 -0.0537 0.9986
vn 0.0527 -0.9972 0.0527
vn -0.1078 -0.9930 0.0487
vn 0.0486 -0.9930 -0.1078
vn -0.1121 -0.9873 -0.1122
vn 0.0008 0.0335 0.9994
vn 0.0009 0.0336 0.9994
vn -0.9994 0.0337 -0.0009
vn -0.9994 0.0337 -0.0008
vn -0.0000 -0.0537 -0.9986
vn -0.0000 -0.0538 -0.9986
vn 0.0527 -0.9972 -0.0527
vn -0.1079 -0.9930 -0.0486
vn 0.0486 -0.9930 0.1078
vn -0.1122 -0.9873 0.1122
vn -0.9985 -0.0540 -0.0000
vn -0.0008 0.0335 -0.9994
vn -0.0009 0.0334 -0.9994
vn 0.9994 0.0337 0.0009
vn 0.9994 0.0337 0.0008
vn -0.0000 -0.0539 0.9985
vn -0.0527 -0.9972 0.0527
vn 0.1079 -0.9930 0.0486
vn -0.0486 -0.9930 -0.1078
vn 0.1122 -0.9873 -0.1122
vn -0.9985 -0.0541 -0.0000
vn -0.0009 0.0335 0.9994
vn -0.0008 0.0335 0.9994
vn 0.9994 0.0337 -0.0009
vn 0.9994 0.0337 -0.0008
vn -0.0527 -0.9972 -0.0527
vn 0.1078 -0.9930 -0.0487
vn -0.0486 -0.9930 0.1078
vn 0.1121 -0.9873 0.1122
vt 0.401672 0.894215
vt 0.665754 0.637544
vt 0.406213 0.894954
vt 0.401654 0.862517
vt 0.605569 0.004670
vt 0.611519 0.619791
vt 0.384711 0.840261
vt 0.406193 0.861757
vt 0.633954 0.637544
vt 0.665648 0.007379
vt 0.666388 0.002840
vt 0.012153 0.781665
vt 0.011087 0.004670
vt 0.611679 0.024324
vt 0.029925 0.727445
vt 0.633174 0.002846
vt 0.012159 0.749877
vt 0.633932 0.007387
vt 0.770625 0.007379
vt 0.771365 0.002840
vt 0.012167 0.894395
vt 0.605569 0.358772
vt 0.716655 0.024324
vt 0.029921 0.840165
vt 0.738150 0.002846
vt 0.012161 0.862608
vt 0.738908 0.007387
vt 0.401653 0.781757
vt 0.406185 0.782501
vt 0.770729 0.637544
vt 0.011087 0.358772
vt 0.384741 0.727787
vt 0.716494 0.619791
vt 0.406213 0.749304
vt 0.738930 0.637544
vt 0.401667 0.750059
vt 0.669880 0.006541
vt 0.012154 0.786116
vt 0.670203 0.637542
vt 0.402511 0.898447
vt 0.775179 0.637542
vt 0.402486 0.785988
vt 0.774855 0.006541
vt 0.012161 0.898847
vt 0.012407 0.719528
vt 0.030343 0.826979
vt 0.710827 0.024621
vt 0.384371 0.939343
vt 0.606199 0.719528
vt 0.711126 0.619427
vt 0.816101 0.619427
vt 0.012407 0.366267
vt 0.384318 0.826869
vt 0.030379 0.939699
vt 0.815803 0.024621
vt 0.606199 0.366267
vt 0.384349 0.917072
vt 0.688861 0.619438
vt 0.687161 0.620638
vt 0.385556 0.915367
vt 0.686854 0.023428
vt 0.029131 0.803011
vt 0.030336 0.804709
vt 0.688564 0.024632
vt 0.791830 0.023428
vt 0.029151 0.915731
vt 0.793540 0.024632
vt 0.030357 0.917428
vt 0.385520 0.802895
vt 0.792136 0.620638
vt 0.384312 0.804599
vt 0.793836 0.619438
vt 0.629261 0.637543
vt 0.402459 0.858019
vt 0.629432 0.006581
vt 0.012153 0.745183
vt 0.402477 0.745559
vt 0.734237 0.637543
vt 0.734408 0.006581
vt 0.012163 0.857914
vt 0.107983 0.983687
vt 0.413096 0.859196
vt 0.413096 0.724762
vt 0.111358 0.984368
vt 0.108613 0.987108
vt 0.413096 0.728276
vt 0.844696 0.728276
vt 0.844696 0.859196
vt 0.844696 0.724763
vt 0.082406 0.983545
vt 0.081894 0.986785
vt 0.413096 0.758374
vt 0.413096 0.761885
vt 0.079217 0.984090
vt 0.844696 0.761885
vt 0.844696 0.758374
vt 0.108067 0.957990
vt 0.108635 0.954717
vt 0.413096 0.825587
vt 0.413096 0.829099
vt 0.111358 0.957486
vt 0.844696 0.829099
vt 0.844696 0.825587
vt 0.082448 0.957934
vt 0.079161 0.957325
vt 0.413096 0.791983
vt 0.413096 0.795490
vt 0.081842 0.954645
vt 0.844696 0.795490
vt 0.844696 0.791983
vt 0.221686 0.960258
vt 0.858557 0.437483
vt 0.992991 0.437483
vt 0.225061 0.959577
vt 0.222316 0.956836
vt 0.989477 0.437483
vt 0.989477 0.005879
vt 0.858557 0.005879
vt 0.992991 0.005879
vt 0.196110 0.960400
vt 0.195597 0.957160
vt 0.959380 0.437483
vt 0.955869 0.437483
vt 0.192920 0.959855
vt 0.955869 0.005879
vt 0.959380 0.005879
vt 0.221771 0.985955
vt 0.222338 0.989228
vt 0.892166 0.437483
vt 0.888655 0.437483
vt 0.225061 0.986459
vt 0.888655 0.005879
vt 0.892166 0.005879
vt 0.196151 0.986011
vt 0.192865 0.986620
vt 0.925771 0.437483
vt 0.922263 0.437483
vt 0.195545 0.989300
vt 0.922263 0.005879
vt 0.925771 0.005879
vt 0.054205 0.960486
vt 0.991346 0.441373
vt 0.856912 0.441373
vt 0.057579 0.959805
vt 0.054834 0.957064
vt 0.860426 0.441373
vt 0.860426 0.872978
vt 0.991346 0.872978
vt 0.856912 0.872978
vt 0.028628 0.960627
vt 0.028115 0.957387
vt 0.890524 0.441373
vt 0.894035 0.441373
vt 0.025438 0.960082
vt 0.894035 0.872978
vt 0.890524 0.872978
vt 0.054289 0.986182
vt 0.054856 0.989456
vt 0.957737 0.441373
vt 0.961249 0.441373
vt 0.057579 0.986686
vt 0.961249 0.872978
vt 0.957737 0.872978
vt 0.028669 0.986238
vt 0.025383 0.986847
vt 0.924132 0.441373
vt 0.927640 0.441373
vt 0.028063 0.989527
vt 0.927640 0.872978
vt 0.924132 0.872978
vt 0.163985 0.985789
vt 0.845719 0.863233
vt 0.845719 0.997667
vt 0.167323 0.986440
vt 0.164631 0.989129
vt 0.845719 0.994153
vt 0.414117 0.994153
vt 0.414117 0.863233
vt 0.414117 0.997667
vt 0.138369 0.985797
vt 0.137835 0.989092
vt 0.845719 0.964055
vt 0.845719 0.960544
vt 0.135147 0.986348
vt 0.414117 0.960544
vt 0.414117 0.964055
vt 0.164045 0.960168
vt 0.164650 0.956930
vt 0.845719 0.896842
vt 0.845719 0.893331
vt 0.167323 0.959689
vt 0.414117 0.893331
vt 0.414117 0.896842
vt 0.138385 0.960134
vt 0.135092 0.959522
vt 0.845719 0.930447
vt 0.845719 0.926939
vt 0.137781 0.956836
vt 0.414117 0.926939
vt 0.414117 0.930447
s 1
usemtl wooden_table_02
f 12/21/1 14/26/1 3/4/1 1/1/1
f 17/30/2 19/35/2 15/27/2 11/19/2
f 18/31/3 8/13/3 4/5/3 13/22/3
f 2/2/4 5/9/4 10/18/4 6/10/4
f 7/12/5 9/17/5 20/36/5 16/28/5
f 22/40/6 1/1/1 2/3/4
f 3/4/1 37/74/3 5/8/4
f 21/37/6 6/10/4 7/11/5
f 38/75/3 9/16/5 10/18/4
f 24/43/6 11/19/2 12/20/1
f 40/79/3 14/25/1 15/27/2
f 23/42/6 16/28/5 17/29/2
f 39/77/3 19/34/2 20/36/5
f 21/37/6 22/39/6 2/2/4 6/10/4
f 1/1/1 3/4/1 5/8/4 2/3/4
f 37/73/3 38/75/3 10/18/4 5/9/4
f 9/16/5 7/11/5 6/10/4 10/18/4
f 23/42/6 21/38/6 7/12/5 16/28/5
f 38/76/3 39/77/3 20/36/5 9/17/5
f 19/34/2 17/29/2 16/28/5 20/36/5
f 24/43/6 23/41/6 17/30/2 11/19/2
f 39/78/3 40/79/3 15/27/2 19/35/2
f 14/25/1 12/20/1 11/19/2 15/27/2
f 22/40/6 24/44/6 12/21/1 1/1/1
f 40/80/3 37/74/3 3/4/1 14/26/1
f 34/68/5 29/57/5 26/48/5 28/54/5
f 33/65/6 35/70/6 23/41/6 24/43/6
f 36/72/4 34/67/4 28/55/4 27/51/4
f 31/61/6 30/59/6 22/39/6 21/37/6
f 25/45/6 27/52/6 28/56/6 26/49/6
f 30/60/6 33/66/6 24/44/6 22/40/6
f 32/63/1 36/71/1 27/53/1 25/46/1
f 35/69/6 31/62/6 21/38/6 23/42/6
f 32/64/2 29/58/2 30/59/6 31/61/6
f 36/71/1 32/63/1 31/62/6 35/69/6
f 34/67/4 36/72/4 35/70/6 33/65/6
f 29/57/5 34/68/5 33/66/6 30/60/6
f 29/58/2 32/64/2 25/47/2 26/50/2
f 4/6/3 8/14/3 38/75/3 37/73/3
f 8/15/3 18/32/3 39/77/3 38/76/3
f 18/33/3 13/23/3 40/79/3 39/78/3
f 13/24/3 4/7/3 37/74/3 40/80/3
f 53/100/7 54/102/7 45/88/8 42/82/7
f 58/107/9 59/109/9 55/103/10 52/99/10
f 48/93/11 49/95/12 60/110/13 57/106/11
f 43/86/14 44/87/14 50/96/14 47/92/14
f 41/81/15 42/84/7 43/85/14
f 46/90/16 47/91/14 48/94/11
f 51/97/17 52/98/10 53/101/7
f 56/104/18 57/105/11 58/108/9
f 46/90/16 41/81/15 43/85/14 47/91/14
f 42/83/7 45/89/8 44/87/14 43/86/14
f 49/95/12 48/93/11 47/92/14 50/96/14
f 56/104/18 46/90/16 48/94/11 57/105/11
f 59/109/9 58/107/9 57/106/11 60/110/13
f 51/97/17 56/104/18 58/108/9 52/98/10
f 54/102/7 53/100/7 52/99/10 55/103/10
f 41/81/15 51/97/17 53/101/7 42/84/7
f 46/90/16 56/104/18 51/97/17 41/81/15
f 73/130/7 62/112/7 65/118/7 74/132/7
f 78/137/19 72/129/19 75/133/19 79/139/20
f 68/123/21 77/136/22 80/140/22 69/125/22
f 63/116/23 67/122/23 70/126/23 64/117/24
f 61/111/25 63/115/23 62/114/7
f 66/120/26 68/124/21 67/121/23
f 71/127/27 73/131/7 72/128/19
f 76/134/28 78/138/19 77/135/22
f 66/120/26 67/121/23 63/115/23 61/111/25
f 62/113/7 63/116/23 64/117/24 65/119/7
f 69/125/22 70/126/23 67/122/23 68/123/21
f 76/134/28 77/135/22 68/124/21 66/120/26
f 79/139/20 80/140/22 77/136/22 78/137/19
f 71/127/27 72/128/19 78/138/19 76/134/28
f 74/132/7 75/133/19 72/129/19 73/130/7
f 61/111/25 62/114/7 73/131/7 71/127/27
f 66/120/26 61/111/25 71/127/27 76/134/28
f 93/160/29 82/142/29 85/148/29 94/162/29
f 98/167/30 92/159/30 95/163/30 99/169/31
f 88/153/32 97/166/33 100/170/33 89/155/33
f 83/146/14 87/152/14 90/156/14 84/147/34
f 81/141/35 83/145/14 82/144/29
f 86/150/36 88/154/32 87/151/14
f 91/157/37 93/161/29 92/158/30
f 96/164/38 98/168/30 97/165/33
f 86/150/36 87/151/14 83/145/14 81/141/35
f 82/143/29 83/146/14 84/147/34 85/149/29
f 89/155/33 90/156/14 87/152/14 88/153/32
f 96/164/38 97/165/33 88/154/32 86/150/36
f 99/169/31 100/170/33 97/166/33 98/167/30
f 91/157/37 92/158/30 98/168/30 96/164/38
f 94/162/29 95/163/30 92/159/30 93/160/29
f 81/141/35 82/144/29 93/161/29 91/157/37
f 86/150/36 81/141/35 91/157/37 96/164/38
f 113/190/29 114/192/29 105/178/39 102/172/29
f 118/197/40 119/199/40 115/193/41 112/189/41
f 108/183/42 109/185/43 120/200/43 117/196/42
f 103/176/23 104/177/23 110/186/23 107/182/23
f 101/171/44 102/174/29 103/175/23
f 106/180/45 107/181/23 108/184/42
f 111/187/46 112/188/41 113/191/29
f 116/194/47 117/195/42 118/198/40
f 106/180/45 101/171/44 103/175/23 107/181/23
f 102/173/29 105/179/39 104/177/23 103/176/23
f 109/185/43 108/183/42 107/182/23 110/186/23
f 116/194/47 106/180/45 108/184/42 117/195/42
f 119/199/40 118/197/40 117/196/42 120/200/43
f 111/187/46 116/194/47 118/198/40 112/188/41
f 114/192/29 113/190/29 112/189/41 115/193/41
f 101/171/44 111/187/46 113/191/29 102/174/29
f 106/180/45 116/194/47 111/187/46 101/171/44
