# Blender 3.4.1
# www.blender.org
mtllib wall.mtl
o Cube
v -23.817118 0.182882 23.817118
v -23.817118 47.817116 23.817118
v -23.817118 0.182882 -23.817118
v -23.817118 47.817116 -23.817118
v 23.817118 0.182882 23.817118
v 23.817118 47.817116 23.817118
v 23.817118 0.182882 -23.817118
v 23.817118 47.817116 -23.817118
v 17.792006 0.182882 -23.817118
v 17.792006 47.817116 -23.817118
v 17.792006 0.182882 23.817118
v 17.792006 47.817116 23.817118
v -18.610033 0.182882 -23.817118
v -18.610033 47.817116 23.817118
v -18.610033 47.817116 -23.817118
v -18.610033 0.182882 23.817118
v -23.817118 0.182882 -18.716682
v -23.817118 47.817116 -18.716682
v 23.817118 0.182882 -18.716682
v 23.817118 47.817116 -18.716682
v 17.792006 47.817116 -18.716682
v 17.792006 0.182882 -18.716682
v -18.610033 0.182882 -18.716682
v -18.610033 47.817116 -18.716682
v -23.817118 0.182882 18.521189
v 23.817118 47.817116 18.521189
v 17.792006 47.817116 18.521189
v 17.792006 0.182882 18.521189
v -18.610033 0.182882 18.521189
v -18.610033 47.817116 18.521189
v -23.817118 47.817116 18.521189
v 23.817118 0.182882 18.521189
vn -1.0000 -0.0000 -0.0000
vn -0.0000 -0.0000 -1.0000
vn 1.0000 -0.0000 -0.0000
vn -0.0000 -0.0000 1.0000
vn -0.0000 -1.0000 -0.0000
vn -0.0000 1.0000 -0.0000
vt 0.375000 1.000000
vt 0.125000 0.750000
vt 0.375000 0.000000
vt 0.625000 1.000000
vt 0.875000 0.750000
vt 0.625000 0.000000
vt 0.375000 0.250000
vt 0.125000 0.500000
vt 0.625000 0.250000
vt 0.875000 0.500000
vt 0.375000 0.750000
vt 0.625000 0.750000
vt 0.375000 0.500000
vt 0.625000 0.500000
vt 0.375000 0.468378
vt 0.343378 0.500000
vt 0.625000 0.468378
vt 0.656622 0.500000
vt 0.343378 0.750000
vt 0.375000 0.781622
vt 0.656622 0.750000
vt 0.625000 0.781622
vt 0.375000 0.277328
vt 0.152328 0.500000
vt 0.847672 0.750000
vt 0.625000 0.972672
vt 0.625000 0.277328
vt 0.847672 0.500000
vt 0.152328 0.750000
vt 0.375000 0.972672
vt 0.375000 0.223231
vt 0.125000 0.526769
vt 0.625000 0.223231
vt 0.875000 0.526769
vt 0.375000 0.526769
vt 0.625000 0.526769
vt 0.656622 0.526769
vt 0.343378 0.526769
vt 0.152328 0.526769
vt 0.847672 0.526769
vt 0.375000 0.027795
vt 0.125000 0.722205
vt 0.625000 0.722205
vt 0.656622 0.722205
vt 0.343378 0.722205
vt 0.152328 0.722205
vt 0.847672 0.722205
vt 0.625000 0.027795
vt 0.875000 0.722205
vt 0.375000 0.722205
s 0
usemtl Material.001
f 17/31/1 18/33/1 4/9/1 3/7/1
f 9/15/2 10/17/2 8/14/2 7/13/2
f 32/50/3 26/43/3 6/12/3 5/11/3
f 16/30/4 14/26/4 2/4/4 1/1/4
f 30/47/6 31/49/6 2/5/6 14/25/6
f 26/43/6 27/44/6 12/21/6 6/12/6
f 5/11/4 6/12/4 12/22/4 11/20/4
f 13/23/2 15/27/2 10/17/2 9/15/2
f 3/7/2 4/9/2 15/27/2 13/23/2
f 27/44/6 30/47/6 14/25/6 12/21/6
f 11/20/4 12/22/4 14/26/4 16/30/4
f 10/18/6 15/28/6 24/40/6 21/37/6
f 8/14/6 10/18/6 21/37/6 20/36/6
f 15/28/6 4/10/6 18/34/6 24/40/6
f 7/13/3 8/14/3 20/36/3 19/35/3
f 25/41/1 31/48/1 18/33/1 17/31/1
f 1/3/1 2/6/1 31/48/1 25/41/1
f 20/36/6 21/37/6 27/44/6 26/43/6
f 24/40/6 18/34/6 31/49/6 30/47/6
f 19/35/3 20/36/3 26/43/3 32/50/3
usemtl Material.004
f 28/45/5 32/50/5 5/11/5 11/19/5
f 29/46/5 28/45/5 11/19/5 16/29/5
f 25/42/5 29/46/5 16/29/5 1/2/5
f 3/8/5 13/24/5 23/39/5 17/32/5
f 13/24/5 9/16/5 22/38/5 23/39/5
f 9/16/5 7/13/5 19/35/5 22/38/5
f 17/32/5 23/39/5 29/46/5 25/42/5
f 23/39/5 22/38/5 28/45/5 29/46/5
f 22/38/5 19/35/5 32/50/5 28/45/5
